<?xml version="1.0" encoding="UTF-8"?>
<!DOCTYPE svg PUBLIC "-//W3C//DTD SVG 1.1//EN" "http://www.w3.org/Graphics/SVG/1.1/DTD/svg11.dtd">
<!-- Creator: CorelDRAW -->
<svg xmlns="http://www.w3.org/2000/svg" xml:space="preserve" width="65.5392mm" height="12.9376mm" version="1.1" style="shape-rendering:geometricPrecision; text-rendering:geometricPrecision; image-rendering:optimizeQuality; fill-rule:evenodd; clip-rule:evenodd"
viewBox="0 0 6553.92 1293.76"
 xmlns:xlink="http://www.w3.org/1999/xlink"
 xmlns:xodm="http://www.corel.com/coreldraw/odm/2003">
 <defs>
  <style type="text/css">
   <![CDATA[
    .fil0 {fill:#7690C9}
    .fil1 {fill:#FEFEFE;fill-rule:nonzero}
    .fil2 {fill:#5B5B5B;fill-rule:nonzero}
   ]]>
  </style>
 </defs>
 <g id="Layer_x0020_1">
  <metadata id="CorelCorpID_0Corel-Layer"/>
  <polygon class="fil0" points="580.95,0 871.43,161.72 1161.91,323.44 1161.91,646.88 1161.91,970.32 871.43,1132.04 580.95,1293.76 290.47,1132.04 -0.01,970.32 -0.01,646.88 -0.01,323.44 290.47,161.72 "/>
  <g>
   <path class="fil1" d="M842.3 405.51l-35.36 35.36 -4.59 -4.81 -10.61 -10.13 -11.1 -9.6 -11.55 -9.08 -11.98 -8.52 -12.41 -7.95 -12.8 -7.36 -13.17 -6.76 -13.53 -6.11 -13.87 -5.47 -14.19 -4.81 -14.49 -4.11 -14.79 -3.41 -15.04 -2.69 -15.3 -1.94 -15.53 -1.18 -15.75 -0.4 0 -50 18.27 0.46 18.05 1.38 17.8 2.26 17.52 3.13 17.21 3.97 16.89 4.79 16.53 5.59 16.17 6.37 15.75 7.13 15.35 7.86 14.88 8.56 14.43 9.25 13.94 9.92 13.43 10.54 12.9 11.18 12.35 11.77 4.59 4.81zm99.57 246.66l-50 0 0 0 -0.4 -15.75 -1.18 -15.53 -1.94 -15.3 -2.69 -15.04 -3.41 -14.79 -2.32 -8.17 47.74 -14.84 3 10.57 3.97 17.21 3.13 17.52 2.26 17.8 1.38 18.05 0.46 18.27 0 0zm-270.26 345.22l-12.44 -48.42 3.48 -0.8 14.49 -4.11 14.19 -4.81 13.87 -5.47 13.53 -6.11 13.17 -6.76 12.8 -7.36 12.41 -7.95 11.98 -8.51 11.55 -9.08 11.1 -9.61 10.61 -10.13 10.13 -10.61 9.6 -11.1 9.08 -11.55 8.53 -11.99 7.94 -12.39 7.36 -12.8 6.76 -13.18 6.11 -13.53 5.47 -13.86 4.81 -14.2 4.11 -14.49 3.41 -14.78 2.69 -15.04 1.94 -15.3 1.18 -15.53 0.4 -15.75 50 0 -0.46 18.27 -1.38 18.05 -2.26 17.8 -3.13 17.52 -3.97 17.2 -4.79 16.89 -5.59 16.54 -6.37 16.16 -7.13 15.75 -7.86 15.34 -8.56 14.9 -9.26 14.43 -9.91 13.93 -10.54 13.43 -11.18 12.9 -11.77 12.35 -12.35 11.77 -12.9 11.17 -13.43 10.56 -13.94 9.91 -14.43 9.25 -14.88 8.56 -15.35 7.86 -15.75 7.13 -16.17 6.37 -16.53 5.59 -16.89 4.79 -3.48 0.8zm-440.99 -345.22l50 0 0 0 0.4 15.75 1.18 15.53 1.94 15.3 2.69 15.04 3.41 14.78 4.11 14.49 4.81 14.2 5.47 13.86 6.11 13.53 6.76 13.18 7.36 12.8 7.95 12.4 8.51 11.98 9.08 11.55 9.61 11.1 10.13 10.61 10.61 10.13 11.1 9.61 11.55 9.08 11.98 8.51 12.4 7.95 12.8 7.36 13.18 6.76 13.53 6.11 13.86 5.47 14.2 4.81 14.49 4.11 2.3 0.53 -10.02 48.98 -4.72 -1.09 -16.89 -4.79 -16.54 -5.59 -16.16 -6.37 -15.75 -7.13 -15.34 -7.86 -14.9 -8.56 -14.42 -9.25 -13.94 -9.91 -13.43 -10.56 -12.9 -11.17 -12.35 -11.77 -11.77 -12.35 -11.17 -12.9 -10.56 -13.43 -9.91 -13.94 -9.25 -14.42 -8.56 -14.9 -7.86 -15.34 -7.13 -15.75 -6.37 -16.16 -5.59 -16.54 -4.79 -16.89 -3.97 -17.2 -3.13 -17.52 -2.26 -17.8 -1.38 -18.05 -0.46 -18.27 0 0zm13.85 -98.19l48.42 12.44 -2.65 9.34 -3.41 14.79 -2.69 15.04 -1.94 15.3 -1.18 15.53 -0.4 15.75 -50 0 0.46 -18.27 1.38 -18.05 2.26 -17.8 3.13 -17.52 3.97 -17.21 2.65 -9.34zm341.77 -257.44l0 50 0 0 -15.75 0.4 -15.53 1.18 -15.3 1.94 -15.04 2.69 -14.78 3.41 -14.49 4.11 -14.2 4.81 -13.86 5.47 -13.53 6.11 -13.18 6.76 -12.8 7.36 -12.39 7.94 -11.99 8.53 -11.55 9.08 -11.1 9.6 -10.61 10.13 -3.79 3.97 -37 -33.62 5.43 -5.71 12.35 -11.77 12.9 -11.18 13.43 -10.54 13.93 -9.91 14.43 -9.26 14.9 -8.56 15.34 -7.86 15.75 -7.13 16.16 -6.37 16.54 -5.59 16.89 -4.79 17.2 -3.97 17.52 -3.13 17.8 -2.26 18.05 -1.38 18.27 -0.46 0 0z"/>
  </g>
  <path class="fil2" d="M1528.91 819.66c-97.37,0 -154.1,-59.27 -154.1,-192.19 0,-132.93 55.04,-203.21 154.1,-203.21 98.21,0 152.4,70.28 152.4,203.21 0,132.92 -67.74,192.19 -152.4,192.19zm0 100.75c172.72,0 268.39,-99.9 268.39,-292.94 0,-193.05 -95.67,-307.35 -268.39,-307.35 -172.72,0 -270.09,114.3 -270.09,304.81 0,189.65 97.37,295.48 270.09,295.48z"/>
  <path id="_1" class="fil2" d="M2031.83 817.97c-60.96,0 -92.29,-44.88 -92.29,-135.47 0,-70.27 40.64,-119.38 93.14,-119.38 55.03,0 93.98,51.65 93.98,126.15 0,85.52 -30.48,128.7 -94.83,128.7zm-88.05 280.24l0 -251.46c31.32,44.03 71.96,65.2 123.61,65.2 107.53,0 171.03,-88.9 171.03,-215.06 0,-140.54 -75.36,-223.52 -180.34,-223.52 -50.8,0 -89.75,19.48 -116,61.81l-0.84 -50.8 -105.84 0 0 613.83 108.38 0z"/>
  <path id="_2" class="fil2" d="M2382.35 652.02c4.24,-57.57 40.64,-91.44 84.67,-91.44 43.18,0 83.82,29.63 85.51,91.44l-170.18 0zm283.64 69.43c0,-165.1 -67.74,-248.08 -195.58,-248.08 -127.85,0 -201.51,82.98 -201.51,211.67 0,150.71 69.43,226.91 208.28,226.91 88.9,0 157.48,-48.26 182.88,-133.78l-113.45 0c-7.62,28.79 -38.95,46.57 -74.51,46.57 -54.19,0 -89.75,-40.64 -93.13,-103.29l287.02 0z"/>
  <path id="_3" class="fil2" d="M3081.71 900.94l0 -288.71c0,-90.6 -58.42,-138.86 -138.01,-138.86 -66.89,0 -109.22,25.4 -134.62,71.97l0 -60.96 -104.99 0 0 416.56 110.07 0 0 -238.76c0,-63.5 27.94,-95.67 85.51,-95.67 52.5,0 71.12,17.78 71.12,82.12l0 252.31 110.92 0z"/>
  <path id="_4" class="fil2" d="M3770.91 912.79c0,55.04 -25.4,82.98 -57.58,82.98 -35.56,0 -60.96,-27.94 -60.96,-91.44 136.32,-21.17 210.82,-141.4 210.82,-276.86 0,-193.05 -95.67,-307.35 -268.39,-307.35 -172.72,0 -270.09,114.3 -270.09,304.81 0,171.02 77.89,266.7 218.44,286.17l0 17.78c0,99.91 66.89,169.33 160.02,169.33 99.06,0 171.03,-77.89 171.03,-185.42l-103.29 0zm-176.11 -93.13c-97.37,0 -154.1,-59.27 -154.1,-192.19 0,-132.93 55.04,-203.21 154.1,-203.21 98.21,0 152.4,70.28 152.4,203.21 0,132.92 -67.74,192.19 -152.4,192.19z"/>
  <path id="_5" class="fil2" d="M4277.22 900.94l0 -416.56 -109.22 0 0 240.45c0,55.04 -29.64,94.83 -85.52,94.83 -46.56,0 -70.27,-25.4 -70.27,-77.89l0 -257.39 -110.07 0 0 274.32c0,91.44 58.42,153.25 141.4,153.25 57.57,0 100.75,-22.02 129.54,-69.43l0 58.42 104.14 0z"/>
  <path id="_6" class="fil2" d="M4577.79 742.61c-0.85,49.11 -43.18,90.6 -99.91,90.6 -34.71,0 -53.34,-15.24 -53.34,-46.57 0,-35.56 20.32,-53.34 82.98,-65.19 40.64,-7.62 60.11,-13.55 71.12,-24.56l-0.85 45.72zm110.91 158.33l0 -263.31c0,-104.99 -45.72,-164.26 -177.8,-164.26 -133.77,0 -181.18,60.12 -182.88,146.48l102.45 0c5.08,-37.26 25.4,-61.81 75.35,-61.81 43.18,0 70.28,16.09 70.28,43.18 0,28.79 -15.24,39.79 -70.28,47.41 -110.91,15.24 -191.34,28.79 -191.34,149.02 0,67.73 44.02,114.3 138.85,114.3 55.88,0 99.91,-19.48 126.15,-48.26 0.85,12.7 3.39,27.09 6.78,37.25l102.44 0z"/>
  <path id="_7" class="fil2" d="M5114.58 900.94l0 -288.71c0,-90.6 -58.42,-138.86 -138.01,-138.86 -66.89,0 -109.22,25.4 -134.62,71.97l0 -60.96 -104.99 0 0 416.56 110.07 0 0 -238.76c0,-63.5 27.94,-95.67 85.51,-95.67 52.5,0 71.12,17.78 71.12,82.12l0 252.31 110.92 0z"/>
  <path id="_8" class="fil2" d="M5399.06 734.99c0,51.65 -20.32,81.28 -64.34,81.28 -44.88,0 -63.5,-30.48 -63.5,-82.97l0 -171.03 230.29 0 0 -77.89 -230.29 0 0 -112.61 -108.38 0 0 372.54c0,89.74 48.26,167.64 170.18,167.64 117.69,0 168.49,-78.74 168.49,-166.8l0 -118.53 -102.45 0 0 108.37z"/>
  <path id="_9" class="fil2" d="M5798.69 742.61c-0.85,49.11 -43.18,90.6 -99.91,90.6 -34.71,0 -53.34,-15.24 -53.34,-46.57 0,-35.56 20.32,-53.34 82.98,-65.19 40.64,-7.62 60.11,-13.55 71.12,-24.56l-0.85 45.72zm110.91 158.33l0 -263.31c0,-104.99 -45.72,-164.26 -177.8,-164.26 -133.77,0 -181.18,60.12 -182.88,146.48l102.45 0c5.08,-37.26 25.4,-61.81 75.35,-61.81 43.18,0 70.28,16.09 70.28,43.18 0,28.79 -15.24,39.79 -70.28,47.41 -110.91,15.24 -191.34,28.79 -191.34,149.02 0,67.73 44.02,114.3 138.85,114.3 55.88,0 99.91,-19.48 126.15,-48.26 0.85,12.7 3.39,27.09 6.78,37.25l102.44 0z"/>
  <path id="_10" class="fil2" d="M6553.92 900.94l0 -288.71c0,-77.9 -58.42,-138.86 -142.24,-138.86 -52.49,0 -89.75,20.32 -112.61,66.04 -32.17,-48.26 -59.27,-66.04 -115.99,-66.04 -55.04,0 -93.98,16.94 -121.92,71.97l0 -60.96 -103.3 0 0 416.56 110.07 0 0 -253.15c0,-54.19 22.86,-81.28 66.89,-81.28 48.26,0 66.04,16.93 66.04,83.82l0 250.61 110.06 0 0 -248.92c0,-50.8 29.64,-88.9 70.28,-88.9 38.95,0 65.19,35.56 65.19,85.51l0 252.31 107.53 0z"/>
 </g>
</svg>
