<?xml version="1.0" encoding="UTF-8"?>
<!DOCTYPE svg PUBLIC "-//W3C//DTD SVG 1.1//EN" "http://www.w3.org/Graphics/SVG/1.1/DTD/svg11.dtd">
<!-- Creator: CorelDRAW -->
<svg xmlns="http://www.w3.org/2000/svg" xml:space="preserve" width="32.6858mm" height="33.8622mm" version="1.1" style="shape-rendering:geometricPrecision; text-rendering:geometricPrecision; image-rendering:optimizeQuality; fill-rule:evenodd; clip-rule:evenodd"
viewBox="0 0 3268.58 3386.22"
 xmlns:xlink="http://www.w3.org/1999/xlink"
 xmlns:xodm="http://www.corel.com/coreldraw/odm/2003">
 <defs>
  <style type="text/css">
   <![CDATA[
    .fil2 {fill:#0A4DAA}
    .fil1 {fill:#1265BD}
    .fil0 {fill:#218AD5}
    .fil3 {fill:white}
    .fil4 {fill:#0A4DAA;fill-rule:nonzero}
   ]]>
  </style>
 </defs>
 <g id="Layer_x0020_1">
  <metadata id="CorelCorpID_0Corel-Layer"/>
  <g id="_2049677732032">
   <path class="fil0" d="M2885.35 2859.84c12.93,33.69 90.37,131.1 104.58,158.93l-171.06 199.44 128.93 -0.67c9.19,-3.65 88.13,-105.82 100.47,-116.7 26.12,23.25 58.21,82.46 83.62,116.98l128.59 -1.16c-3.68,-14.62 -108.75,-153.38 -124.39,-175.64 -28.1,-40 -113.99,-149.25 -124.95,-182.13l-125.79 0.95z"/>
   <path class="fil1" d="M3251.51 2862.96l-36.7 0.58c-100.93,0.41 -88.15,-14.27 -136.4,48 14.59,18.61 43.81,55.5 54.74,77.6l118.36 -126.18z"/>
   <polygon class="fil2" points="1484.86,5.04 1999.19,246 2513.5,486.97 2640.52,1028.41 2767.56,1569.85 2411.64,2004.05 2055.72,2438.25 1484.86,2438.25 914,2438.25 558.08,2004.05 202.16,1569.85 329.2,1028.41 456.22,486.97 970.53,246 "/>
   <path class="fil3" d="M678.35 731.86c18.38,5.3 22.54,14.67 38.88,27.05 37.49,28.4 12.18,36.05 -29.35,116.24 -26.79,51.72 -53.86,123.58 -67.87,185.61 -17.9,79.24 -25.65,144.21 -25.41,227.87 0.71,250.55 106.74,188.97 -99.96,269.02 -51.61,19.99 -107.18,-2.63 -103.09,75.39 43.39,68.76 74.03,14.03 117.42,-3.88 32.48,-13.41 110.19,-50.76 139.41,-55.93 11.72,45.09 57.31,126.68 80.6,164.27 20.34,32.82 79.31,116.5 106.33,142.51 12.18,11.74 19.23,14.86 30.2,27.08 41.37,46.11 121.32,103.16 176.7,134.11 25.1,14.03 58.07,26.43 76.68,46.35 -10.29,31.12 -43.94,84.54 -60.9,114.55 -15.91,28.15 -32.08,17.92 -39.68,50.87 -7.01,30.38 4.29,52.14 25.85,59.21 24,7.87 45.6,-4.3 56.58,-19.4 10.39,-14.28 6.24,-15.89 8.85,-33.12 3.31,-21.88 3.75,-15.19 14.5,-34.42 20.81,-37.24 44.97,-86.57 67.74,-113.03 21.96,3.29 43.14,13.32 66.33,19.02 135.34,33.26 247.59,39.89 386.2,16.36 192,-32.6 119.06,-72.33 206.26,71 27.54,45.26 14.23,17.19 23.59,58.35 12.31,54.17 83.24,46.7 89.41,1.83 6.68,-48.59 -23.49,-40.07 -45.23,-80.19 -73.51,-135.62 -27.19,-64.26 -135.31,-161.48 -25.15,-22.61 -11.53,-25.23 -51.37,-12.88 -467.77,145.05 -952.47,-148.25 -1028.34,-655.23 -17.27,-119.78 -3.51,-231.19 32.06,-340.85 15.57,-47.99 36.16,-94.9 57.09,-134.35 22.63,-42.63 53.51,-79.07 75.9,-113.71 12.6,-13.26 14.33,-18.55 24.47,-30.06 9.23,-10.49 17.74,-15.13 27.45,-25 61.15,-62.07 90.24,-89.03 176.45,-139.33 201.35,-117.48 463.16,-137.21 680.93,-50.17 54.6,21.82 230.5,116.18 257.68,165.74 23.65,11.75 89.58,93.04 112.7,129.01 34.34,53.44 56.17,94.94 83.79,160.01 28.93,92.1 51.9,160.62 52.27,269.62 0.64,186.55 -52.65,338.14 -155.51,481.95l-156.68 160.12c-22.64,-12.68 -108.89,-107.78 -129.56,-134.64 -21.38,-27.78 -98.99,-126.29 -106.57,-160.17 21.28,-12.39 31.45,-28.02 45.62,-45.46 11.22,-13.81 3.09,-8.8 12.77,-9.99 20.78,-51.77 44.52,-73.43 59.66,-146.27 12.43,-59.89 9.33,-115.32 -7.62,-172.9 -16.28,-55.31 -41.56,-93.94 -69.46,-131.51 -78.45,-105.63 -156.31,-90.91 -162.15,-26.66 -3.2,35.18 17.13,47.47 34.56,63.27 145.33,131.73 99.74,326.78 -9.06,398.2 -209.55,137.56 -462.53,-49.98 -386.95,-281.77 42.16,-129.29 127.65,-116.45 110.81,-189.26 -5.82,-25.19 -25.19,-41.45 -57.03,-41 -54.82,0.77 -126.44,104.44 -150.44,152.57 -10.17,20.39 -14.55,52.38 -28.59,67.57 1.44,36.23 -11.01,68.81 -6.98,116.52 9.22,109 52.2,181.57 126.24,250.94 39.12,36.66 99.05,68.81 169.72,84.02 35.1,7.56 75.51,9.71 110.91,5.57 38.67,-4.52 74.1,-19.71 102.78,-23.25 26.78,30.07 93.07,129.86 145.73,184.5 40.65,42.19 120.29,134.38 169.31,161.2 24.03,13.15 40.87,-8.24 59.67,-22.16 151.21,-112.01 259.83,-241.95 329.37,-426.5 23.31,4.36 115.99,46.39 144,58.57 26.29,11.44 33.25,34.78 66.63,31.81 36.75,-3.27 37.6,-26.03 45.07,-59.3l-11.35 -15.49c-31.9,-43.43 -27.83,-4.73 -102.34,-36.2 -39.35,-16.62 -83.58,-34.47 -118.8,-48.58 2.61,-52.83 21.41,-111.93 25.37,-173.97 7.62,-119.49 -5.6,-217.85 -41.69,-331.45 -7.95,-25.01 -15.97,-47.47 -25.2,-70.39 -7.68,-19.08 -25.12,-50.32 -28.01,-66.65 -11.97,-11.99 -43.54,-68.28 -44.04,-86.43 5.3,-8.94 28.9,-29.89 39.25,-37.63 26.38,-19.75 13.73,-20.31 51.81,-24.49 49.59,-5.44 61.02,-54.75 34.54,-86.54 -19.89,-23.89 -76.5,-36.06 -94.67,21.01 -8.49,26.69 -65.87,65.41 -79.57,69.39 -47.75,-47.22 -77.36,-83.02 -126.33,-125.12 -86.59,-74.42 -209.94,-141.91 -326.78,-175.33 -221.12,-63.25 -218.41,9.64 -218.65,-100.75 -0.09,-40.52 -3,-25.65 13.69,-51.34 23.44,-36.08 -7.21,-77.17 -44.16,-79.18 -37.78,-2.05 -71.54,37.78 -50.38,75.82 11.17,20.07 15.72,1.95 14.6,59.67 -0.54,27.62 4.95,38.11 -11.98,57.41 -25.89,20.97 -252.12,-17.46 -539.9,216.11 -39.91,32.39 -103.75,107.52 -125.08,121.36l-58.25 -39.9c-35.04,-25.41 -16.81,-83.46 -84.02,-67.16 -27.96,6.78 -53.54,36.48 -36.94,73.01 23.49,51.68 66.43,16.36 76.82,48.81z"/>
   <path class="fil3" d="M1485.82 938.71c-29.43,8.8 -44.5,23.93 -45.9,59.3 -1.12,28.6 -3.13,187.43 3.82,204.99 7.53,19.03 34.21,43.26 66.55,34.72 63.37,-16.75 44.68,-98.02 45.21,-163.35 0.23,-28.86 5.57,-74.64 -3.69,-98.92 -9.08,-23.83 -33.69,-46.39 -65.99,-36.74z"/>
   <path class="fil4" d="M454.05 3391.27l-143.8 0 0 -247.65 -3.38 0c-6.07,13.69 -14.82,26.81 -26.25,39.23 -11.43,12.42 -25.54,22.58 -42.48,30.34 -17.07,7.9 -37.39,11.85 -61.1,11.85 -34.15,0 -65.19,-8.89 -93.41,-26.67 -28.08,-17.78 -50.38,-44.31 -66.89,-79.44 -16.51,-35.14 -24.84,-78.89 -24.84,-131.24 0,-54.04 8.61,-98.49 25.83,-133.77 17.21,-35.14 39.79,-61.1 67.87,-78.04 27.94,-16.93 58,-25.4 90.31,-25.4 24.42,0 45.44,4.1 62.8,12.56 17.36,8.47 31.61,19.05 42.76,32.03 11.14,12.99 19.61,26.39 25.4,40.5l5.08 0 0 -79.3 142.1 0 0 635zm-227.76 -278.69c18.2,0 33.87,-5.22 46.99,-15.53 12.98,-10.3 23,-24.83 29.92,-43.6 6.91,-18.77 10.3,-40.64 10.3,-65.76 0,-25.54 -3.39,-47.69 -10.3,-66.32 -6.92,-18.63 -16.94,-32.88 -29.92,-43.04 -13.12,-10.02 -28.79,-15.1 -46.99,-15.1 -18.48,0 -34.15,5.22 -46.85,15.52 -12.84,10.45 -22.58,24.84 -29.21,43.47 -6.63,18.62 -9.88,40.5 -9.88,65.47 0,24.84 3.25,46.71 9.88,65.62 6.63,18.77 16.37,33.44 29.21,43.74 12.7,10.31 28.37,15.53 46.85,15.53z"/>
   <polygon id="_1" class="fil4" points="550.42,3218.41 550,2602.46 695.48,2602.46 695.91,2844.32 941.87,2844.32 941.87,2602.46 1087.35,2602.46 1087.35,3218.41 941.87,3218.41 941.87,2963.28 695.48,2962.86 695.91,3218.41 "/>
   <polygon id="_2" class="fil4" points="1163.41,2721.56 1162.98,2602.46 1681.01,2602.46 1681.43,2721.56 1495.02,2721.56 1495.02,3218.41 1349.53,3218.41 1349.53,2721.56 "/>
   <polygon id="_3" class="fil4" points="1736.46,2721.56 1736.03,2602.46 2254.06,2602.46 2254.48,2721.56 2068.07,2721.56 2068.07,3218.41 1922.58,3218.41 1922.58,2721.56 "/>
   <path id="_4" class="fil4" d="M2329.83 3218.41l0 -615.95 252.16 0c46.29,0 86.22,8.89 119.95,26.81 33.58,17.92 59.41,42.9 77.47,74.79 18.06,32.03 27.09,69.14 27.09,111.34 0,42.33 -9.31,79.3 -27.8,110.77 -18.34,31.32 -44.73,55.88 -78.88,73.52 -34.15,17.64 -74.79,26.53 -121.92,26.53l-156.35 0 0 -115.43 129.82 0c22.86,0 42.05,-3.95 57.44,-12 15.52,-7.9 27.09,-19.05 34.71,-33.44 7.76,-14.39 11.71,-31.05 11.71,-49.95 0,-19.34 -3.95,-36.13 -11.71,-50.24 -7.62,-14.25 -19.33,-25.26 -34.86,-32.88 -15.52,-7.76 -34.85,-11.57 -57.71,-11.57l-75.21 0 0 497.7 -145.91 0z"/>
  </g>
 </g>
</svg>
